<svg xmlns="http://www.w3.org/2000/svg" viewBox="0 -0.5 54 47" shape-rendering="crispEdges">
  <path stroke="#2b2e34" d="M12 0H15M27 0H30M31 0H36M11 1H12M15 1H18M26 1H27M30 1H31M36 1H37M38 1H40M11 2H13M18 2H22M26 2H27M37 2H38M40 2H41M10 3H11M13 3H15M22 3H28M40 3H41M10 4H12M15 4H17M31 4H32M36 4H37M39 4H40M9 5H10M12 5H14M17 5H19M38 5H39M9 6H11M14 6H16M19 6H20M39 6H42M8 7H9M11 7H13M16 7H18M19 7H20M33 7H35M42 7H45M8 8H10M13 8H15M18 8H19M45 8H48M7 9H8M10 9H12M15 9H17M18 9H19M48 9H51M7 10H9M12 10H14M17 10H18M51 10H53M6 11H7M9 11H11M14 11H16M17 11H18M43 11H48M53 11H54M6 12H8M11 12H13M16 12H17M42 12H43M48 12H53M5 13H6M8 13H10M13 13H15M16 13H17M41 13H47M52 13H53M6 14H7M10 14H12M15 14H16M40 14H41M47 14H52M7 15H9M12 15H15M39 15H46M51 15H52M9 16H12M38 16H39M46 16H51M7 17H9M37 17H45M50 17H51M6 18H7M36 18H37M45 18H50M6 19H22M35 19H44M49 19H50M5 20H6M21 20H22M35 20H36M44 20H49M5 21H21M27 21H30M36 21H43M48 21H49M4 22H5M19 22H20M27 22H28M30 22H32M37 22H38M43 22H48M4 23H19M27 23H29M32 23H34M38 23H42M47 23H48M3 24H4M17 24H18M27 24H28M29 24H31M34 24H36M39 24H40M42 24H47M3 25H17M27 25H28M31 25H33M36 25H38M40 25H41M2 26H3M16 26H17M27 26H30M33 26H35M38 26H40M2 27H16M27 27H28M30 27H32M35 27H37M39 27H40M1 28H2M15 28H16M27 28H29M32 28H34M37 28H39M1 29H16M27 29H28M29 29H31M34 29H36M38 29H39M0 30H1M14 30H16M26 30H28M31 30H33M36 30H38M1 31H15M16 31H17M26 31H27M28 31H30M33 31H35M37 31H38M13 32H15M16 32H17M25 32H27M30 32H32M35 32H37M12 33H14M15 33H16M17 33H19M23 33H26M27 33H29M32 33H34M36 33H37M12 34H14M15 34H16M19 34H23M24 34H26M29 34H31M34 34H36M11 35H13M14 35H15M16 35H18M22 35H25M26 35H28M31 35H33M35 35H36M11 36H13M14 36H15M18 36H22M23 36H24M28 36H30M33 36H35M10 37H12M13 37H14M15 37H17M21 37H24M30 37H32M34 37H35M10 38H12M13 38H14M17 38H21M22 38H23M32 38H34M9 39H11M12 39H13M14 39H16M20 39H23M9 40H11M12 40H13M16 40H20M21 40H22M9 41H10M11 41H12M13 41H15M19 41H22M9 42H10M11 42H12M15 42H19M20 42H21M10 43H11M12 43H14M18 43H21M10 44H11M14 44H18M19 44H20M11 45H13M17 45H19M13 46H17"/>
  <path stroke="#3bb5e6" d="M12 1H15M27 1H30M31 1H36M13 2H18M27 2H31M32 2H36M38 2H40M15 3H22M28 3H30M33 3H35M38 3H40M17 4H30M33 4H35M38 4H39M19 5H31M32 5H36M37 5H38M20 6H39M20 7H33M35 7H42M19 8H45M19 9H48M18 10H32M34 10H51M18 11H32M34 11H43M48 11H53M17 12H42M17 13H41M16 14H40M15 15H39M12 16H38M9 17H37M7 18H36M22 19H35M22 20H35M21 21H27M30 21H36M20 22H27M32 22H37M19 23H27M34 23H38M18 24H27M36 24H39M17 25H27M38 25H40M17 26H27M16 27H27M16 28H27M16 29H27M16 30H26M17 31H26M17 32H25M19 33H23"/>
  <path stroke="#ffffff" d="M31 2H32M36 2H37M30 3H33M35 3H38M30 4H31M32 4H33M35 4H36M37 4H38M31 5H32M36 5H37M32 10H34M32 11H34"/>
  <path stroke="#4c63b3" d="M11 3H13M12 4H15M14 5H17M16 6H19M18 7H19M43 12H48M47 13H52M6 20H21M28 22H30M29 23H32M31 24H34M33 25H36M35 26H38M37 27H39M15 31H16M15 32H16M16 33H17M16 34H19M23 34H24M18 35H22"/>
  <path stroke="#a96eb6" d="M10 5H12M11 6H14M13 7H16M15 8H18M17 9H18M41 14H47M46 15H51M5 22H19M28 24H29M28 25H31M30 26H33M32 27H35M34 28H37M36 29H38M14 33H15M14 34H15M15 35H16M15 36H18M22 36H23M17 37H21"/>
  <path stroke="#e83d71" d="M9 7H11M10 8H13M12 9H15M14 10H17M16 11H17M39 16H46M45 17H50M4 24H17M28 27H30M29 28H32M31 29H34M33 30H36M35 31H37M13 35H14M13 36H14M14 37H15M14 38H17M21 38H22M16 39H20"/>
  <path stroke="#ee2c28" d="M8 9H10M9 10H12M11 11H14M13 12H16M15 13H16M37 18H45M44 19H49M3 26H16M28 29H29M28 30H31M30 31H33M32 32H35M34 33H36M12 37H13M12 38H13M13 39H14M13 40H16M20 40H21M15 41H19"/>
  <path stroke="#ff542d" d="M7 11H9M8 12H11M10 13H13M12 14H15M36 20H44M43 21H48M2 28H15M27 31H28M27 32H30M29 33H32M31 34H34M33 35H35M11 39H12M11 40H12M12 41H13M12 42H15M19 42H20M14 43H18"/>
  <path stroke="#ff8939" d="M6 13H8M7 14H10M9 15H12M38 22H43M42 23H47M1 30H14M26 33H27M26 34H29M28 35H31M30 36H33M32 37H34M10 41H11M10 42H11M11 43H12M11 44H14M18 44H19M13 45H17"/>
</svg>
